<?xml version="1.0" encoding="UTF-8"?><svg id="a" xmlns="http://www.w3.org/2000/svg" viewBox="0 0 460.87715 460.03512"><path d="M230.14233,460.03505C102.69065,459.93624-.18698,356.95379,.00026,229.65845,.18742,102.4098,103.31095-.16046,230.89729,.00019c127.15018,.1601,230.31569,103.65621,229.97905,230.71602-.33592,126.79417-103.59247,229.41743-230.734,229.31885Zm-.20593-212.95017c14.47193,0,28.94403,.04255,43.41574-.01418,10.49979-.04116,16.03159-5.28395,16.09619-15.72561,.14135-22.8625,.1355-45.72704,.00038-68.58961-.06176-10.4541-5.59321-15.87955-16.0058-15.90771-28.94366-.07821-57.88771-.07852-86.83141-.0118-10.26437,.02367-15.96186,5.01395-16.10353,15.15862-.32506,23.27821-.3093,46.56634-.02565,69.84551,.12296,10.09107,5.89212,15.18109,16.03837,15.22902,14.4716,.06841,28.94378,.01741,43.4157,.01576Zm52.92062,30.3387c-10.31694,.09508-9.07554-1.29193-9.16873,8.88187-.03643,3.97922-.00638,7.95905-.0063,11.93858,.00027,17.02375,.25003,17.22821,17.4387,14.27551,7.74571-1.3306,13.13654-7.03831,13.94557-14.76534,1.358-12.97047-6.6558-20.30644-22.20924-20.33062Zm-200.8593,17.96963q-.00002,20.41052,18.93274,17.28848c9.84193-1.62296,13.10455-9.5968,6.83521-17.17245-1.37629-1.66308-1.75715-2.32505-.62445-4.49472,2.88693-5.52981,.27003-10.62024-5.81032-12.60904-4.69695-1.53641-9.54356-.66266-14.30989-1.02916-3.71291-.28552-5.37627,.83542-5.09245,4.85019,.30886,4.36874,.07012,8.77614,.06915,13.16671Zm247.89074-18.60197c-10.32474-.06599-18.49948,7.8896-18.50248,18.00652-.003,10.04017,8.41458,18.36422,18.47612,18.27083,10.07522-.09355,17.81393-7.79863,17.98183-17.90352,.17416-10.48573-7.46882-18.3068-17.95547-18.37383Zm-99.38105,19.97008c4.47447,4.25286,6.26673,8.07078,7.9769,11.70959,2.11534,4.50091,5.40563,5.12722,9.67946,4.83305,3.01218-.20739,3.77578-1.08735,2.062-3.75112-2.14635-3.33619-4.16235-6.75617-6.24125-10.13591-5.19838-8.4513-5.13436-8.3877,1.87715-15.71879,1.54458-1.61496,5.38157-3.47167,3.28388-5.59157-1.80302-1.82212-5.94477-1.31764-8.86044,.04704-1.24263,.58165-2.19608,1.91293-3.10687,3.04383-1.76117,2.18673-3.39874,4.47297-5.08757,6.71797-.52782-.50025-1.05561-1.00045-1.58343-1.50066,0-1.25123-.10184-2.51242,.01954-3.75169,.33323-3.40191-.2427-5.40198-4.56054-5.39241-4.17053,.0093-4.79661,1.72811-4.72158,5.26577,.18627,8.78556,.23456,17.58287-.02139,26.36497-.11473,3.93752,1.76199,4.38657,4.94697,4.41528,3.17003,.02856,4.62356-.89073,4.38989-4.2896-.23827-3.46556-.05273-6.96021-.05273-12.26576Zm-54.25445,16.47538c3.8429,.55936,5.44756-.70337,3.62354-5.15627-3.61845-8.83341-7.12962-17.71754-10.38187-26.69066-1.13555-3.133-2.88897-4.02707-6.01592-4.05201-3.19599-.0254-4.84603,1.03397-5.96738,4.12795-3.18461,8.78694-6.81526,17.41158-10.05075,26.18119-.59338,1.60828-3.16611,4.14794-.01595,5.23694,2.52252,.87201,5.79825,1.3992,8.11535-1.32852,4.82703-5.68238,11.29444-5.84488,15.35993-.21865,1.34772,1.86512,3.02161,1.95821,5.33306,1.90002Zm7.10481-16.36789c.08257,12.17367,14.47963,20.60126,26.61736,13.55292,1.96609-1.14173,5.65351-2.40004,4.0794-5.08375-1.36845-2.33305-3.93094-4.76598-8.29003-2.38862-6.51729,3.55445-13.65443-1.80886-12.95677-8.99755,.70029-7.21568,7.53329-11.15339,13.56927-7.06602,4.49369,3.04299,5.96235-.9453,7.48365-2.61288,2.44841-2.68375-1.31382-3.59316-2.84729-4.61621-5.91612-3.94663-12.25202-4.03598-18.41105-.71712-6.24037,3.36271-9.15789,8.92688-9.24453,17.92923Zm181.68689-19.44635c-2.93778,0-5.8867,.16011-8.81037-.04297-3.21851-.22357-4.52931,.9124-4.5106,4.25855,.0171,3.06697,.66365,4.99535,4.17084,4.41624,3.66752-.60559,4.59046,.99261,4.44454,4.47685-.26328,6.28459,.13454,12.59725-.14111,18.88076-.16767,3.82214,1.86754,3.91919,4.67081,3.88844,2.86703-.0314,4.79325-.40263,4.65394-4.09075-.24534-6.49628,.01391-13.01009-.10299-19.5136-.04615-2.56822,.59224-4.04924,3.47361-3.63601,3.59916,.51612,5.19838-.50985,5.10065-4.68205-.10268-4.385-2.62423-3.97641-5.39506-3.95593-2.51793,.01864-5.03617,.00396-7.55425,.00046Zm-247.95407,17.43644c0,4.82506,.08157,9.65207-.03324,14.47436-.06055,2.54274,.65952,3.97053,3.48496,3.92653,5.24284-.08171,10.4908-.12341,15.73108,.02048,3.4018,.09339,3.56616-1.8961,3.57012-4.4669,.00392-2.53836-.03943-4.65372-3.52068-4.32519-1.87087,.17656-3.79565-.16453-5.65566,.06119-3.51298,.42626-4.78451-.80337-4.61223-4.45836,.28611-6.07018-.02934-12.16633,.1169-18.2465,.07257-3.01747-.52046-4.67782-4.10103-4.51271-3.08175,.14209-5.31311,.24217-5.0413,4.31509,.2927,4.38596,.06618,8.80654,.06107,13.21202Z" style="fill:#111;"/><path d="M229.9364,247.08572c-14.47193,.00081-28.9441,.05181-43.4157-.0166-10.14625-.04793-15.91541-5.13794-16.03837-15.22902-.28365-23.27917-.29941-46.5673,.02565-69.84551,.14167-10.14467,5.83916-15.13495,16.10353-15.15862,28.9437-.06672,57.88775-.06641,86.83141,.0118,10.41259,.02815,15.94404,5.45361,16.0058,15.90771,.13512,22.86258,.14096,45.72711-.00038,68.58961-.0646,10.44166-5.5964,15.68445-16.09619,15.72561-14.47172,.05673-28.94382,.01418-43.41574,.01503Zm.05334-76.94468c-14.87458,0-29.75115,.13302-44.62242-.08888-3.96345-.05917-5.35431,.8025-5.29488,5.08465,.25297,18.22467,.26061,36.45676,.02302,54.68179-.07452,5.71532,2.00971,7.77023,7.69198,7.73618,28.07213-.16832,56.14643-.16521,84.21854,.00651,5.59786,.03422,7.84098-1.7608,7.75132-7.62378-.27866-18.22386-.22047-36.45609-.00676-54.68172,.04738-4.04256-.94434-5.29577-5.13893-5.21988-14.86973,.26897-29.74727,.10486-44.62187,.10511Z" style="fill:#f6f6f6;"/><path d="M282.85702,277.42357c15.55344,.02417,23.56724,7.36015,22.20924,20.33062-.80903,7.72703-6.19986,13.43474-13.94557,14.76534-17.18867,2.95271-17.43843,2.74824-17.4387-14.27551-.00008-3.97953-.03013-7.95936,.0063-11.93858,.09319-10.1738-1.14821-8.78679,9.16873-8.88187Zm.3584,17.669c0,1.04039-.19023,2.12493,.03881,3.11217,.50931,2.19527-1.61502,5.46343,1.52667,6.45182,2.9998,.94373,6.15521-.01314,8.54828-2.46019,4.13364-4.22684,3.43106-11.51132-1.40177-14.74082-2.41636-1.61473-5.30706-2.2274-7.72599-1.17729-2.12925,.92439-.67487,3.74143-.95975,5.69691-.14838,1.01879-.02613,2.07701-.02625,3.11739Z" style="fill:#f6f6f6;"/><path d="M81.9982,295.3932c.00048-4.39057,.23923-8.79797-.06964-13.16671-.28382-4.01477,1.37954-5.13571,5.09245-4.85019,4.76633,.3665,9.61294-.50724,14.30989,1.02916,6.08035,1.9888,8.69725,7.07924,5.81032,12.60904-1.1327,2.16967-.75184,2.83164,.62445,4.49472,6.26934,7.57564,3.00672,15.54949-6.83521,17.17245q-18.93276,3.122-18.93226-17.28848Zm14.13176,3.59062c-2.546,.22991-5.5332-1.0377-5.36192,3.32512,.10591,2.6982,.90687,3.8939,3.62978,3.49604,2.74603-.40128,6.74643,.63653,7.29907-3.07089,.58446-3.92065-3.46538-3.07427-5.56694-3.75027Zm-.96845-13.2905c-2.54199-.01072-4.56953-.43618-4.32412,2.62153,.215,2.67879,2.14353,2.13439,3.63159,2.04307,1.91331-.11737,4.78633,.2939,4.54784-2.68552-.19153-2.39293-2.74935-1.92765-3.85531-1.97908Z" style="fill:#f6f6f6;"/><path d="M329.88846,276.79123c10.48665,.06703,18.12963,7.8881,17.95547,18.37383-.1679,10.10489-7.90661,17.80998-17.98183,17.90352-10.06153,.09339-18.47911-8.23066-18.47612-18.27083,.003-10.11692,8.17774-18.07251,18.50248-18.00652Zm.00884,27.64511c4.81658-.06088,8.75211-4.44149,8.68886-9.67156-.06318-5.22365-4.1713-9.64035-8.8546-9.51978-5.02402,.12937-8.7236,4.25513-8.65892,9.65657,.06349,5.30047,4.03841,9.59527,8.82467,9.53477Z" style="fill:#f6f6f6;"/><path d="M230.50741,296.76131c0,5.30555-.18554,8.8002,.05273,12.26576,.23367,3.39888-1.21986,4.31816-4.38989,4.2896-3.18498-.02871-5.0617-.47776-4.94697-4.41528,.25594-8.7821,.20766-17.57942,.02139-26.36497-.07503-3.53766,.55105-5.25647,4.72158-5.26577,4.31783-.00957,4.89376,1.99049,4.56054,5.39241-.12138,1.23928-.01954,2.50046-.01954,3.75169,.52782,.50021,1.05561,1.00042,1.58343,1.50066,1.68882-2.245,3.3264-4.53123,5.08757-6.71797,.91079-1.1309,1.86424-2.46218,3.10687-3.04383,2.91568-1.36469,7.05743-1.86916,8.86044-.04704,2.0977,2.1199-1.7393,3.9766-3.28388,5.59157-7.0115,7.33109-7.07553,7.26748-1.87715,15.71879,2.07891,3.37974,4.0949,6.79971,6.24125,10.13591,1.71378,2.66377,.95018,3.54373-2.062,3.75112-4.27383,.29417-7.56413-.33214-9.67946-4.83305-1.71017-3.63882-3.50243-7.45673-7.9769-11.70959Z" style="fill:#f6f6f6;"/><path d="M176.25297,313.23669c-2.31145,.05819-3.98534-.0349-5.33306-1.90002-4.06548-5.62623-10.5329-5.46374-15.35993,.21865-2.31709,2.72772-5.59282,2.20053-8.11535,1.32852-3.15016-1.089-.57743-3.62867,.01595-5.23694,3.23549-8.76961,6.86614-17.39424,10.05075-26.18119,1.12135-3.09399,2.77139-4.15336,5.96738-4.12795,3.12695,.02494,4.88037,.91901,6.01592,4.05201,3.25225,8.97311,6.76342,17.85725,10.38187,26.69066,1.82402,4.45291,.21936,5.71563-3.62354,5.15627Zm-16.38947-13.6964c2.60711,.38249,5.639,1.01564,5.97758-.13582,.93696-3.18634-1.22803-6.0415-2.70472-9.37347-1.1534,3.35118-2.14168,6.22264-3.27287,9.50929Z" style="fill:#f6f6f6;"/><path d="M183.35778,296.86881c.08664-9.00236,3.00416-14.56652,9.24453-17.92923,6.15903-3.31886,12.49494-3.2295,18.41105,.71712,1.53347,1.02305,5.2957,1.93246,2.84729,4.61621-1.52131,1.66758-2.98996,5.65587-7.48365,2.61288-6.03598-4.08737-12.86898-.14966-13.56927,7.06602-.69766,7.1887,6.43947,12.55201,12.95677,8.99755,4.35909-2.37736,6.92158,.05557,8.29003,2.38862,1.57411,2.68371-2.1133,3.94201-4.0794,5.08375-12.13773,7.04834-26.5348-1.37925-26.61736-13.55292Z" style="fill:#f6f6f6;"/><path d="M365.04467,277.42419c2.51808,.00177,5.03632,.01645,7.55425-.00219,2.77084-.02048,5.29238-.42907,5.39506,3.95593,.09773,4.17219-1.5015,5.19817-5.10065,4.68205-2.88136-.41323-3.51976,1.06779-3.47361,3.63601,.1169,6.50351-.14234,13.01732,.10299,19.5136,.13931,3.68813-1.78692,4.05935-4.65394,4.09075-2.80327,.03075-4.83848-.0663-4.67081-3.88844,.27566-6.28352-.12217-12.59617,.14111-18.88076,.14592-3.48424-.77701-5.08244-4.44454-4.47685-3.50719,.57911-4.15374-1.34927-4.17084-4.41624-.01872-3.34615,1.29209-4.48212,4.5106-4.25855,2.92367,.20308,5.87259,.04297,8.81037,.0447Z" style="fill:#f6f6f6;"/><path d="M117.09315,294.8589c.00256-4.40548,.22908-8.82607-.06362-13.21202-.27181-4.07292,1.95954-4.173,5.0413-4.31509,3.58057-.16511,4.17361,1.49524,4.10103,4.51271-.14625,6.08017,.16921,12.17632-.1169,18.2465-.17228,3.655,1.09925,4.88463,4.61223,4.45836,1.86001-.22572,3.78479,.11538,5.65566-.06119,3.48125-.32853,3.5246,1.78684,3.52068,4.32519-.00396,2.5708-.16832,4.56029-3.57012,4.4669-5.24029-.14389-10.48824-.10219-15.73108-.02048-2.82545,.04401-3.54551-1.38379-3.48496-3.92653,.11481-4.82229,.03324-9.6493,.0358-14.47436Z" style="fill:#f6f6f6;"/><path d="M229.98974,170.14091c14.8746-.00012,29.75213,.16399,44.62187-.10498,4.19459-.07589,5.18631,1.17732,5.13893,5.21988-.21371,18.22563-.27189,36.45785,.00676,54.68172,.08966,5.86298-2.15346,7.658-7.75132,7.62378-28.07211-.17172-56.14641-.17483-84.21854-.00651-5.68227,.03405-7.7665-2.02086-7.69198-7.73618,.23759-18.22504,.22995-36.45712-.02302-54.68179-.05943-4.28215,1.33142-5.14382,5.29488-5.08465,14.87127,.22189,29.74785,.08888,44.62242,.08874Zm-39.73523,13.71212c4.54803,4.23318,8.16694,7.92575,12.13371,11.19636,3.49603,2.88251,4.0705,5.01676,.18037,8.20981-4.07125,3.34167-7.54401,7.41261-11.27836,11.16476,4.78472-.09626,9.30437,3.01793,13.07166-.83777,3.95292-4.04575,8.01474-7.9849,11.99637-12.00291,.97185-.98076,2.81044-2.25001,1.11691-3.56445-7.7782-6.03701-11.88988-18.43206-27.22066-14.1658Zm51.28345,31.57528c3.56568,0,7.13356,.07612,10.6964-.02396,2.88086-.08092,4.83095-1.54786,5.01153-4.54115,.18389-3.04802-1.77961-4.95511-4.51225-5.05385-7.53888-.27245-15.09897-.28466-22.63862-.03503-2.63529,.08724-4.85733,1.73359-4.71095,4.86979,.15587,3.33998,2.32549,4.73537,5.45657,4.78401,3.56499,.05538,7.13148,.01284,10.69732,.00019Z" style="fill:#111;"/><path d="M283.2155,295.09258c.00004-1.04039-.12221-2.09861,.02617-3.11739,.28488-1.95548-1.1695-4.77252,.95975-5.69691,2.41893-1.05011,5.30963-.43745,7.72599,1.17729,4.83283,3.2295,5.53541,10.51397,1.40177,14.74082-2.39307,2.44704-5.54848,3.40391-8.54828,2.46019-3.14169-.98839-1.01736-4.25655-1.52667-6.45182-.22904-.98723-.03881-2.07178-.03874-3.11217Z" style="fill:#111;"/><path d="M96.12997,298.98382c2.10156,.676,6.1514-.17037,5.56694,3.75027-.55264,3.70742-4.55304,2.66961-7.29907,3.07089-2.72291,.39786-3.52387-.79783-3.62978-3.49604-.17128-4.36282,2.81592-3.09522,5.36192-3.32512Z" style="fill:#111;"/><path d="M95.16152,285.69332c1.10596,.05142,3.66378-.41385,3.85531,1.97908,.2385,2.97942-2.63453,2.56814-4.54784,2.68552-1.48806,.09132-3.41659,.63572-3.63159-2.04307-.24541-3.05771,1.78213-2.63225,4.32412-2.62153Z" style="fill:#111;"/><path d="M329.8973,304.43634c-4.78626,.06049-8.76118-4.2343-8.82467-9.53477-.06468-5.40144,3.6349-9.5272,8.65892-9.65657,4.6833-.12056,8.79142,4.29614,8.8546,9.51978,.06326,5.23006-3.87228,9.61068-8.68886,9.67156Z" style="fill:#111;"/><path d="M159.8635,299.5403c1.13119-3.28665,2.11947-6.15811,3.27287-9.50929,1.47669,3.33197,3.64168,6.18713,2.70472,9.37347-.33859,1.15146-3.37048,.51831-5.97758,.13582Z" style="fill:#111;"/><path d="M190.25451,183.85303c15.33078-4.26626,19.44246,8.12879,27.22066,14.1658,1.69353,1.31443-.14505,2.58369-1.11691,3.56445-3.98163,4.01802-8.04344,7.95717-11.99637,12.00291-3.76729,3.85569-8.28694,.74151-13.07166,.83777,3.73435-3.75216,7.20711-7.82309,11.27836-11.16476,3.89013-3.19305,3.31566-5.3273-.18037-8.20981-3.96678-3.27061-7.58569-6.96317-12.13371-11.19636Z" style="fill:#f6f6f6;"/><path d="M241.53796,215.43463c-3.56584,.00632-7.13233,.04887-10.69732-.00651-3.13108-.04864-5.3007-1.44403-5.45657-4.78401-.14638-3.13621,2.07566-4.78255,4.71095-4.86979,7.53965-.24962,15.09974-.23742,22.63862,.03503,2.73264,.09873,4.69614,2.00583,4.51225,5.05385-.18058,2.99329-2.13067,4.46023-5.01153,4.54115-3.56284,.10008-7.13071,.02396-10.6964,.03029Z" style="fill:#f6f6f6;"/></svg>